<?xml version="1.0" encoding="UTF-8"?>

<svg version="1.2" baseProfile="tiny" width="100.89mm" height="100.89mm" viewBox="5324 8877 10089 10089" preserveAspectRatio="xMidYMid" fill-rule="evenodd" stroke-width="28.222" stroke-linejoin="round" xmlns="http://www.w3.org/2000/svg" xmlns:xlink="http://www.w3.org/1999/xlink" xml:space="preserve">
 <g visibility="visible" id="Slide_1">
  <g>
   <path fill="none" stroke="rgb(255,102,0)" id="Drawing_1_0" stroke-width="1058" stroke-linejoin="round" d="M 10369,18437 C 9537,18437 8831,18248 8111,17832 7391,17416 6874,16899 6458,16179 6042,15459 5853,14753 5853,13922 5853,13090 6042,12384 6458,11664 6874,10944 7391,10427 8111,10011 8831,9595 9537,9406 10368,9406 11200,9406 11906,9595 12626,10011 13346,10427 13863,10944 14279,11664 14695,12384 14884,13090 14884,13921 14884,14753 14695,15459 14279,16179 13863,16899 13346,17416 12626,17832 11906,18248 11200,18437 10369,18437 L 10369,18437 Z"/>
  </g>
  <g>
   <path fill="none" stroke="rgb(255,211,32)" id="Drawing_2_0" stroke-width="1058" stroke-linejoin="round" d="M 10388,12123 L 10348,15861"/>
  </g>
  <g>
   <path fill="rgb(207,231,245)" stroke="none" d="M 9576,11079 L 9459,11094 9343,11117 9227,11146 9114,11183 9001,11227 8891,11279 8783,11337 8677,11402 8575,11473 8475,11551 8378,11635 8285,11726 8196,11822 8111,11923 8030,12030 7953,12142 7881,12259 7814,12380 7752,12505 7695,12634 7643,12766 7597,12902 7556,13040 7521,13180 7491,13323 7467,13468 7450,13613 7438,13760 7432,13907 7432,14055 7438,14202 7450,14349 7467,14494 7491,14639 7521,14782 7556,14922 7597,15061 7643,15196 7695,15328 7752,15457 7814,15582 7881,15703 7953,15820 8030,15932 8111,16039 8196,16140 8285,16236 8378,16327 8475,16411 8575,16489 8678,16560 8783,16625 8891,16683 9001,16735 9114,16779 9228,16816 9343,16845 9459,16868 9576,16883 9605,16402 9507,16390 9410,16371 9314,16346 9219,16316 9126,16279 9034,16236 8943,16188 8855,16134 8769,16074 8686,16009 8606,15939 8528,15863 8454,15783 8382,15699 8315,15609 8251,15516 8191,15419 8135,15318 8083,15214 8035,15106 7992,14996 7953,14883 7919,14767 7890,14650 7865,14531 7845,14410 7831,14289 7821,14166 7816,14043 7816,13920 7821,13798 7831,13675 7845,13554 7865,13433 7890,13314 7919,13197 7953,13081 7992,12968 8035,12858 8083,12750 8135,12646 8191,12545 8251,12448 8315,12354 8382,12265 8454,12181 8528,12101 8606,12025 8686,11955 8770,11890 8855,11830 8943,11776 9034,11728 9126,11685 9219,11648 9314,11618 9410,11593 9507,11574 9605,11562 9576,11079 Z"/>
   <path fill="none" stroke="rgb(0,153,0)" id="Drawing_3_0" stroke-width="529" stroke-linejoin="round" d="M 9576,11079 L 9459,11094 9343,11117 9227,11146 9114,11183 9001,11227 8891,11279 8783,11337 8677,11402 8575,11473 8475,11551 8378,11635 8285,11726 8196,11822 8111,11923 8030,12030 7953,12142 7881,12259 7814,12380 7752,12505 7695,12634 7643,12766 7597,12902 7556,13040 7521,13180 7491,13323 7467,13468 7450,13613 7438,13760 7432,13907 7432,14055 7438,14202 7450,14349 7467,14494 7491,14639 7521,14782 7556,14922 7597,15061 7643,15196 7695,15328 7752,15457 7814,15582 7881,15703 7953,15820 8030,15932 8111,16039 8196,16140 8285,16236 8378,16327 8475,16411 8575,16489 8678,16560 8783,16625 8891,16683 9001,16735 9114,16779 9228,16816 9343,16845 9459,16868 9576,16883 9605,16402 9507,16390 9410,16371 9314,16346 9219,16316 9126,16279 9034,16236 8943,16188 8855,16134 8769,16074 8686,16009 8606,15939 8528,15863 8454,15783 8382,15699 8315,15609 8251,15516 8191,15419 8135,15318 8083,15214 8035,15106 7992,14996 7953,14883 7919,14767 7890,14650 7865,14531 7845,14410 7831,14289 7821,14166 7816,14043 7816,13920 7821,13798 7831,13675 7845,13554 7865,13433 7890,13314 7919,13197 7953,13081 7992,12968 8035,12858 8083,12750 8135,12646 8191,12545 8251,12448 8315,12354 8382,12265 8454,12181 8528,12101 8606,12025 8686,11955 8770,11890 8855,11830 8943,11776 9034,11728 9126,11685 9219,11648 9314,11618 9410,11593 9507,11574 9605,11562 9576,11079 Z"/>
   <rect fill="none" stroke="none" x="7431" y="11071" width="4643" height="5821"/>
  </g>
  <g>
   <path fill="rgb(207,231,245)" stroke="none" d="M 11195,11079 L 11312,11094 11428,11117 11544,11146 11657,11183 11770,11227 11880,11279 11988,11337 12094,11402 12196,11473 12296,11551 12393,11635 12486,11726 12575,11822 12660,11923 12741,12030 12818,12142 12890,12259 12957,12380 13019,12505 13076,12634 13128,12766 13174,12902 13215,13040 13250,13180 13280,13323 13304,13468 13321,13613 13333,13760 13339,13907 13339,14055 13333,14202 13321,14349 13304,14494 13280,14639 13250,14782 13215,14922 13174,15061 13128,15196 13076,15328 13019,15457 12957,15582 12890,15703 12818,15820 12741,15932 12660,16039 12575,16140 12486,16236 12393,16327 12296,16411 12196,16489 12093,16560 11988,16625 11880,16683 11770,16735 11657,16779 11543,16816 11428,16845 11312,16868 11195,16883 11166,16402 11264,16390 11361,16371 11457,16346 11552,16316 11645,16279 11737,16236 11828,16188 11916,16134 12002,16074 12085,16009 12165,15939 12243,15863 12317,15783 12389,15699 12456,15609 12520,15516 12580,15419 12636,15318 12688,15214 12736,15106 12779,14996 12818,14883 12852,14767 12881,14650 12906,14531 12926,14410 12940,14289 12950,14166 12955,14043 12955,13920 12950,13798 12940,13675 12926,13554 12906,13433 12881,13314 12852,13197 12818,13081 12779,12968 12736,12858 12688,12750 12636,12646 12580,12545 12520,12448 12456,12354 12389,12265 12317,12181 12243,12101 12165,12025 12085,11955 12001,11890 11916,11830 11828,11776 11737,11728 11645,11685 11552,11648 11457,11618 11361,11593 11264,11574 11166,11562 11195,11079 Z"/>
   <path fill="none" stroke="rgb(102,102,255)" id="Drawing_4_0" stroke-width="529" stroke-linejoin="round" d="M 11195,11079 L 11312,11094 11428,11117 11544,11146 11657,11183 11770,11227 11880,11279 11988,11337 12094,11402 12196,11473 12296,11551 12393,11635 12486,11726 12575,11822 12660,11923 12741,12030 12818,12142 12890,12259 12957,12380 13019,12505 13076,12634 13128,12766 13174,12902 13215,13040 13250,13180 13280,13323 13304,13468 13321,13613 13333,13760 13339,13907 13339,14055 13333,14202 13321,14349 13304,14494 13280,14639 13250,14782 13215,14922 13174,15061 13128,15196 13076,15328 13019,15457 12957,15582 12890,15703 12818,15820 12741,15932 12660,16039 12575,16140 12486,16236 12393,16327 12296,16411 12196,16489 12093,16560 11988,16625 11880,16683 11770,16735 11657,16779 11543,16816 11428,16845 11312,16868 11195,16883 11166,16402 11264,16390 11361,16371 11457,16346 11552,16316 11645,16279 11737,16236 11828,16188 11916,16134 12002,16074 12085,16009 12165,15939 12243,15863 12317,15783 12389,15699 12456,15609 12520,15516 12580,15419 12636,15318 12688,15214 12736,15106 12779,14996 12818,14883 12852,14767 12881,14650 12906,14531 12926,14410 12940,14289 12950,14166 12955,14043 12955,13920 12950,13798 12940,13675 12926,13554 12906,13433 12881,13314 12852,13197 12818,13081 12779,12968 12736,12858 12688,12750 12636,12646 12580,12545 12520,12448 12456,12354 12389,12265 12317,12181 12243,12101 12165,12025 12085,11955 12001,11890 11916,11830 11828,11776 11737,11728 11645,11685 11552,11648 11457,11618 11361,11593 11264,11574 11166,11562 11195,11079 Z"/>
   <rect fill="none" stroke="none" x="8699" y="11072" width="4643" height="5821"/>
  </g>
 </g>
</svg>